<svg width="24" height="22" viewBox="0 0 24 22" fill="none" xmlns="http://www.w3.org/2000/svg">
<path d="M20.9193 0H2.51031C1.84454 0 1.20603 0.24693 0.735253 0.686469C0.264478 1.12601 0 1.72215 0 2.34375L0 19.5312C0 20.1529 0.264478 20.749 0.735253 21.1885C1.20603 21.6281 1.84454 21.875 2.51031 21.875H20.9193C21.585 21.875 22.2235 21.6281 22.6943 21.1885C23.1651 20.749 23.4296 20.1529 23.4296 19.5312V2.34375C23.4296 1.72215 23.1651 1.12601 22.6943 0.686469C22.2235 0.24693 21.585 0 20.9193 0ZM20.0621 15.0083L19.2776 18.1821C19.2378 18.3435 19.1405 18.4875 19.0018 18.5906C18.863 18.6937 18.6909 18.7499 18.5135 18.75C10.1458 18.75 3.34708 12.4165 3.34708 4.58984C3.35331 4.42581 3.41576 4.26797 3.52525 4.13955C3.63474 4.01113 3.78549 3.91891 3.95531 3.87646L7.35469 3.14404C7.41268 3.13259 7.47168 3.12622 7.53093 3.125C7.68263 3.13215 7.82952 3.17708 7.95634 3.25513C8.08316 3.33318 8.18529 3.4415 8.25212 3.56885L9.82107 6.98682C9.8595 7.07897 9.88089 7.17655 9.88435 7.27539C9.87158 7.49221 9.76832 7.69572 9.59671 7.84229L7.61513 9.35596C8.8158 11.7319 10.8639 13.6441 13.4087 14.7651L15.03 12.915C15.1869 12.7548 15.4049 12.6584 15.6371 12.6465C15.743 12.6497 15.8475 12.6696 15.9462 12.7056L19.6071 14.1704C19.7436 14.2327 19.8596 14.3281 19.9433 14.4465C20.0269 14.5649 20.0749 14.7021 20.0825 14.8438C20.0814 14.8991 20.0746 14.9542 20.0621 15.0083Z" fill="black"/>
</svg>
