<svg width="24" height="15" viewBox="0 0 24 15" fill="none" xmlns="http://www.w3.org/2000/svg">
<path d="M23.117 4.95313C23.2965 4.83203 23.5635 4.94531 23.5635 5.13672V13.125C23.5635 14.1602 22.574 15 21.3544 15H2.20907C0.989481 15 0 14.1602 0 13.125V5.14063C0 4.94531 0.262327 4.83594 0.446417 4.95703C1.47732 5.63672 2.84418 6.5 7.53846 9.39453C8.50954 9.99609 10.1479 11.2617 11.7817 11.2539C13.4247 11.2656 15.0953 9.97266 16.0296 9.39453C20.7239 6.5 22.0861 5.63281 23.117 4.95313ZM11.7817 10C12.8494 10.0156 14.3866 8.85938 15.1598 8.38281C21.2669 4.62109 21.7318 4.29297 23.14 3.35547C23.407 3.17969 23.5635 2.90625 23.5635 2.61719V1.875C23.5635 0.839844 22.574 0 21.3544 0H2.20907C0.989481 0 0 0.839844 0 1.875V2.61719C0 2.90625 0.156476 3.17578 0.423406 3.35547C1.83169 4.28906 2.29652 4.62109 8.40368 8.38281C9.17686 8.85938 10.714 10.0156 11.7817 10Z" fill="black"/>
</svg>
